<svg width="29" height="33" viewBox="0 0 29 33" fill="none" xmlns="http://www.w3.org/2000/svg">
  <g style="mix-blend-mode:difference">
    <path
      d="M28.976 32.044C27.04 29.976 25.192 27.908 23.212 25.796C24.532 23.728 24.972 21.22 25.104 18.8H28.712V14.444H20.66C20.66 15.412 20.66 16.864 20.572 18.272C20.484 19.724 20.308 21.132 19.78 22.1L14.368 16.204C17.8 14.224 20.264 11.892 20.264 7.844C20.264 2.96 16.172 0.143998 11.64 0.143998C6.932 0.143998 3.104 3.092 3.104 8.02C3.104 10.924 4.468 12.64 6.448 14.796C3.148 16.82 0.904 19.504 0.904 23.376C0.904 29.228 5.7 32.836 11.244 32.836C14.456 32.836 17.58 31.78 20.088 29.58L22.288 32.044H28.976ZM15.116 8.064C15.116 10.66 13.048 11.672 11.112 12.728C9.836 11.408 8.164 9.956 8.164 7.932C8.164 5.776 9.836 4.676 11.64 4.676C13.62 4.676 15.116 5.908 15.116 8.064ZM16.788 26.104C15.424 27.6 13.4 28.04 11.552 28.04C8.604 28.04 5.964 26.368 5.964 23.156C5.964 20.516 7.592 19.46 9.66 18.228C12.08 20.868 14.368 23.464 16.788 26.104Z"
      fill="#000" />
  </g>
</svg>